<?xml version="1.0" encoding="UTF-8"?>
<svg version="1.1" viewBox="0 0 264.08 277.45" xml:space="preserve" xmlns="http://www.w3.org/2000/svg">
   <path d="m52.805 117.3c-0.504-4.237-2.007-8.171-4.273-11.556l202.99-67.776-10.655-31.916c-1.549-4.638-6.566-7.141-11.201-5.594l-220.81 73.725c-4.635 1.547-7.143 6.563-5.594 11.201l5.225 15.647c-5.216 4.843-8.488 11.752-8.488 19.415 0 9.924 5.486 18.586 13.582 23.127v125.02c0 4.891 3.967 8.853 8.854 8.853h232.79c4.885 0 8.852-3.963 8.852-8.853v-151.29zm129.38-90.575 26.875-8.973-6.467 26.14-26.875 8.973zm-66.399 22.169 26.877-8.973-6.467 26.139-26.875 8.974zm-89.289 85.053c-7.442 0-13.498-6.056-13.498-13.5s6.056-13.5 13.498-13.5c7.444 0 13.5 6.056 13.5 13.5s-6.056 13.5-13.5 13.5zm22.893-62.884 26.877-8.973-6.467 26.14-26.877 8.974zm26.402 76.13h-28.334l14.412-22.746h28.334zm56.078-22.746h28.334l-14.412 22.746h-28.334zm-6.955 109.93v-60l47.783 30zm90.877-87.18h-28.334l14.412-22.746h28.334z" fill="#9fb3c9"/>
</svg>
