<svg version="1.1" viewBox="0 0 512 426.67" xml:space="preserve" xmlns="http://www.w3.org/2000/svg">
<g transform="translate(1,-41.666)">
			<path d="m127 383h-51.2c-5.12 0-8.533 3.413-8.533 8.533v34.133c0 5.12 3.413 8.533 8.533 8.533h51.2c5.12 0 8.533-3.413 8.533-8.533v-34.133c0-5.12-3.413-8.533-8.533-8.533zm-8.533 34.133h-34.134v-17.067h34.133v17.067z"/>
			<path d="m348.87 383h-51.2c-5.12 0-8.533 3.413-8.533 8.533v34.133c0 5.12 3.413 8.533 8.533 8.533h51.2c5.12 0 8.533-3.413 8.533-8.533v-34.133c0-5.12-3.413-8.533-8.533-8.533zm-8.534 34.133h-34.133v-17.067h34.133z"/>
			<path d="m434.2 383h-51.2c-5.12 0-8.533 3.413-8.533 8.533v34.133c0 5.12 3.413 8.533 8.533 8.533h51.2c5.12 0 8.533-3.413 8.533-8.533v-34.133c0-5.12-3.413-8.533-8.533-8.533zm-8.533 34.133h-34.133v-17.067h34.133z"/>
			<path d="m127 75.8h-51.2c-5.12 0-8.533 3.413-8.533 8.533v34.133c0 5.12 3.413 8.533 8.533 8.533h51.2c5.12 0 8.533-3.413 8.533-8.533v-34.133c0-5.12-3.413-8.533-8.533-8.533zm-8.533 34.133h-34.134v-17.066h34.133v17.066z"/>
			<path d="m348.87 75.8h-51.2c-5.12 0-8.533 3.413-8.533 8.533v34.133c0 5.12 3.413 8.533 8.533 8.533h51.2c5.12 0 8.533-3.413 8.533-8.533v-34.133c0-5.12-3.413-8.533-8.533-8.533zm-8.534 34.133h-34.133v-17.066h34.133z"/>
			<path d="m434.2 75.8h-51.2c-5.12 0-8.533 3.413-8.533 8.533v34.133c0 5.12 3.413 8.533 8.533 8.533h51.2c5.12 0 8.533-3.413 8.533-8.533v-34.133c0-5.12-3.413-8.533-8.533-8.533zm-8.533 34.133h-34.133v-17.066h34.133z"/>
			<path d="m207.21 408.6 45.227-45.227c3.413-3.413 3.413-8.533 0-11.947l-45.227-45.226 45.227-45.227c3.413-3.413 3.413-8.533 0-11.947l-45.227-45.226 45.227-45.227c3.413-3.413 3.413-8.533 0-11.947l-45.227-45.226 45.227-45.227c2.56-2.56 3.413-5.973 1.707-9.387-0.853-3.413-4.267-5.12-7.68-5.12h-221.87c-14.507 1e-3 -25.6 11.094-25.6 25.601v375.47c0 14.507 11.093 25.6 25.6 25.6h221.87c3.413 0 6.827-1.707 7.68-5.12 1.707-3.413 0.853-6.827-1.707-9.387zm-15.36 8.533h-22.187v-17.067h22.187l-2.56 2.56c-3.413 3.413-3.413 8.533 0 11.947zm0-307.2h-22.187v-17.066h22.187l-2.56 2.56c-0.64 0.64-1.16 1.34-1.56 2.078-0.667 1.229-1 2.562-1 3.896s0.333 2.667 1 3.896c0.4 0.737 0.92 1.438 1.56 2.078zm-175.79-17.066h17.067v17.067h-17.067zm0 307.2h17.067v17.067h-17.067zm8.533 51.2c-5.12 0-8.533-3.413-8.533-8.533v-8.534h25.6c5.12 0 8.533-3.413 8.533-8.533v-34.133c0-5.12-3.413-8.533-8.533-8.533h-25.6v-256h25.6c5.12 0 8.533-3.413 8.533-8.533v-34.134c0-5.12-3.413-8.533-8.533-8.533h-25.6v-8.533c0-5.12 3.413-8.533 8.533-8.533h201.39l-17.067 17.066h-47.787c-5.12 0-8.533 3.413-8.533 8.533v34.133c0 5.12 3.413 8.533 8.533 8.533h47.787l25.6 25.6-45.227 45.227c-3.413 3.413-3.413 8.533 0 11.947l45.227 45.227-45.227 45.227c-3.413 3.413-3.413 8.533 0 11.947l45.227 45.226-25.6 25.6h-47.787c-5.12 0-8.533 3.413-8.533 8.533v34.133c0 5.12 3.413 8.533 8.533 8.533h47.787l17.067 17.067h-201.39z"/>
			<path d="m485.4 41.667h-187.73c-2.56 0-4.267 0.853-5.973 2.56l-51.2 51.2c-3.413 3.413-3.413 8.533 0 11.947l45.226 45.226-45.227 45.227c-3.413 3.413-3.413 8.533 0 11.947l45.227 45.226-45.227 45.227c-3.413 3.413-3.413 8.533 0 11.947l45.227 45.226-45.227 45.227c-3.413 3.413-3.413 8.533 0 11.947l51.2 51.2c1.707 1.707 3.413 2.56 5.973 2.56h187.73c14.507 0 25.6-11.093 25.6-25.6v-375.47c0-14.507-11.093-25.6-25.6-25.6zm8.533 68.266h-17.067v-17.066h17.067zm-8.533 341.33h-184.32l-42.667-42.667 45.227-45.227c3.413-3.413 3.413-8.533 0-11.947l-45.227-45.226 45.227-45.227c3.413-3.413 3.413-8.533 0-11.947l-45.227-45.226 45.227-45.227c3.413-3.413 3.413-8.533 0-11.947l-45.227-45.226 42.667-42.667h184.32c5.12 0 8.533 3.413 8.533 8.533v8.534h-25.6c-5.12 0-8.533 3.413-8.533 8.533v34.133c0 5.12 3.413 8.533 8.533 8.533h25.6v256h-25.6c-5.12 0-8.533 3.413-8.533 8.533v34.133c0 5.12 3.413 8.533 8.533 8.533h25.6v8.533c0 5.122-3.413 8.536-8.533 8.536zm8.533-34.134h-17.067v-17.067h17.067z"/>
</g>
<path d="m116.16-1.9585c-31.302 0.15365-62.616-0.12825-93.909 0.60024-13.305 1.2226-24.216 13.63-23.777 26.983-0.7393 91.771-0.22218 183.55-0.26518 275.32 0.1264 35.266-0.1259 70.568 0.23671 105.81 2.7669 8.9814 9.0038 17.484 18.405 20.122 7.0867 1.6244 14.549 0.62842 21.776 1.0982 68.503 0.57104 137.02 0.76085 205.52-0.13792 4.1073-0.0309 9.3239 0.47754 11.584-3.8333 2.8479-3.9563 2.3057-9.66-1.5528-12.782-14.17-15.051-29.102-29.364-43.617-44.081 14.672-15.078 30.138-29.414 44.212-45.057 3.1637-2.9747 4.1298-8.2287 0.92751-11.548-14.372-15.983-30.108-30.68-45.149-46.025 15.329-15.714 31.457-30.693 46.026-47.125 3.377-4.8017-0.99024-9.9756-4.2937-13.35-13.608-14.357-27.836-28.114-41.718-42.204 15.314-15.554 31.244-30.548 45.938-46.687 2.7395-4.3671 0.27088-9.6176-3.4436-12.482-13.917-14.525-28.31-28.584-42.508-42.833 15.329-15.713 31.457-30.693 46.025-47.123 3.7547-6.4755-2.8881-15.485-10.247-14.256-43.386-0.53525-86.78-0.38865-130.17-0.414zm101.08 26.353c-3.0097 2.5712-5.5062 6.3799-8.8173 8.2242-16.372 0.30309-32.806-0.64417-49.14 0.59905-5.8384 0.34938-7.593 6.9337-7.206 11.781 0.0781 11.714-0.69651 23.522 0.49071 35.182 1.0046 4.8116 6.0027 6.7715 10.464 6.5824 15.323 0.52846 30.664 0.14758 45.994 0.26572 8.0307 8.0377 16.062 16.075 24.093 24.113-15.417 15.434-30.834 30.869-46.25 46.304-1.4216 4.1254-0.61671 9.3814 3.1432 12.113 14.134 14.776 28.721 29.109 43.12 43.624-15.214 15.535-31.021 30.546-45.713 46.56-2.1198 4.1356-1.3277 9.6603 2.5928 12.459 14.132 14.775 28.717 29.105 43.115 43.618-7.8096 7.816-15.619 15.632-23.428 23.448-16.733 0.4165-33.531-0.36964-50.224 0.91459-5.3793 0.36048-7.8975 6.1884-7.382 10.954 0.0263 12.049-0.65627 24.178 0.40925 36.183 1.2648 5.149 6.8704 6.996 11.64 6.7994 15.16 0.45989 30.333 0.12889 45.498 0.23259 4.3855 4.4231 8.8396 8.7791 13.145 13.281-66.537 0.32612-133.08 0.44996-199.61-0.0842-5.1596-1.2667-3.9361-7.8365-4.1601-11.82 0.63854-3.0557 6.8622-0.59765 9.7169-1.4655 6.2441-0.53116 12.917 0.80477 18.896-1.372 6.2615-3.2362 5.0647-11.252 5.3646-17.095-0.32951-9.8362 0.94868-19.861-0.95062-29.573-1.4011-6.2265-8.7304-6.7917-13.937-6.6999-6.3633-0.0953-12.727-0.17533-19.09-0.2752v-252.22c9.0993-0.42401 18.376 0.88488 27.37-0.81376 6.4094-1.6509 6.5551-9.3608 6.6084-14.722-0.22551-10.696 0.7091-21.511-0.77446-32.134-1.1273-5.958-8.0589-7.0825-13.114-6.7016-6.7116-0.06303-13.424-0.02654-20.135-0.03859 0.60495-3.7091-0.68558-7.9645 1.1471-11.298 2.4446-3.6942 7.3997-1.3786 11.114-2.0269 63.8-0.09669 127.6-0.19416 191.4-0.29221-1.7944 1.7975-3.5888 3.5951-5.3832 5.3926zm-191.42 28.623c3.7318-0.04572 8.5708-1.1987 6.8066 4.2515-0.73288 2.7926 1.5587 8.6097-1.2147 9.3618h-12.399v-13.613h6.8066zm156.21 0c1.6256 0.67015 8.7945-1.5666 5.6821 1.5267-2.3228 3.7181-1.768 8.8705 1.1945 12.087h-16.231v-13.613h9.3547zm-156.21 307.32c3.7318-0.0457 8.5708-1.1987 6.8066 4.2515-0.73288 2.7926 1.5587 8.6097-1.2147 9.3618h-12.399v-13.613h6.8066zm156.21 0c1.6518 0.66536 8.8085-1.5696 5.6655 1.5552-2.2653 3.7198-1.9265 9.0415 1.5148 11.962-5.4346 0.15462-11.034 0.0765-16.535 0.0961v-13.613h9.3547z" fill="#febd69" stroke-linecap="round" stroke-width="3.0368"/><path d="m411.6-1.8956c-38.303 0.048835-76.607 0.13388-114.91 0.19929-6.2289 2.7115-10.226 8.8008-15.328 13.12-13.85 13.959-28.261 27.416-41.335 42.113-3.2559 3.081-3.9752 8.7104-0.30467 11.783 14.284 15.657 29.815 30.13 44.31 45.534-14.793 15.708-30.971 30.593-45.542 46.702-2.6512 4.5189-0.53616 10.072 3.4092 13.049 13.804 14.498 28.439 28.469 42.133 42.868-14.97 16.075-31.401 30.855-45.851 47.456-3.1274 5.5109 2.6967 10.389 6.0178 14.12 13.127 13.634 26.826 26.74 39.832 40.454-14.303 15.351-29.911 29.533-43.918 45.191-3.413 3.1886-4.0587 9.0361-0.19454 12.151 17.294 18.475 35.26 36.339 53.553 53.82 4.718 2.3619 10.43 0.98243 15.531 1.5197 61.087 0.23592 122.18-0.10367 183.26-0.12469 9.3884-2.3732 17.27-9.5413 20.284-18.785 2.4027-5.7742 0.58925-12.331 1.1609-18.439-0.0217-119.99 0.53799-239.99-0.0984-359.98 0.57469-9.1609-1.5007-19.21-8.863-25.362-6.802-6.8448-16.961-7.4731-26.037-7.1913-22.37-0.23504-44.742-0.19299-67.113-0.19778zm-15.458 21.047c31.249 0.05219 62.498 0.10439 93.747 0.15658 3.2351 1.8709 3.0126 5.5058 3.0083 8.7058 1.8421 5.4339-2.5045 4.8686-6.5386 4.6063-7.2364 0.45377-14.805-0.9681-21.839 1.0711-6.0203 2.4551-5.2422 9.9266-5.4747 15.229 0.2524 10.346-0.90413 20.843 0.80328 31.092 1.0301 5.9836 7.8107 7.2478 12.886 7.0012 6.753 0.05682 13.507-0.0063 20.26 0.01661v252.22c-9.1584 0.48793-18.484-0.44881-27.546 1.0688-5.438 1.838-6.4736 8.0215-6.3381 13.032 0.095 11.005-0.84146 22.123 0.58843 33.061 0.57275 5.2757 5.9988 7.7805 10.782 7.6016 7.4989 0.31546 15.01 0.21171 22.514 0.37707-0.49336 4.0406 1.4173 10.023-2.8209 12.556-16.449 1.1914-33.06 0.49843-49.594 0.78388-45.864 0.10709-91.729 0.16347-137.59 0.24697-13.705-13.712-27.411-27.423-41.117-41.134 15.284-15.56 31.098-30.636 45.851-46.698 2.4005-4.4918 0.21462-9.8422-3.6062-12.76-13.826-14.521-28.326-28.352-42.134-42.874 14.341-15.376 29.972-29.523 44.009-45.176 3.3174-3.1055 3.9667-8.7895 0.33333-11.913-14.288-15.594-29.623-30.187-44.447-45.265 15.202-15.501 30.949-30.515 45.656-46.474 1.7652-3.8613 2.1572-9.3225-1.9762-11.831-14.56-14.666-29.311-29.098-43.578-44.043 13.207-13.864 26.926-27.229 40.42-40.811 31.248 0.0522 62.497 0.10439 93.745 0.15658zm90.046 33.866c3.7318-0.04572 8.5708-1.1987 6.8066 4.2515-0.73288 2.7926 1.5587 8.6097-1.2147 9.3618h-12.399v-13.613h6.8066zm0 307.32c3.7318-0.0457 8.5708-1.1987 6.8066 4.2515-0.73288 2.7926 1.5587 8.6097-1.2147 9.3618h-12.399v-13.613h6.8066z" fill="#febd69" stroke-linecap="round" stroke-width="3.0368"/><path d="m315.2 32.626c-7.0911 0.44472-14.507-0.83965-21.412 1.1008-6.1719 2.6069-5.1202 10.367-5.4202 15.8 0.24012 10.336-0.81706 20.824 0.8544 31.063 1.4875 5.8896 8.5185 6.5685 13.541 6.3317 16.426-0.05952 32.906 0.65501 49.3-0.47522 5.8145-0.14915 8.3995-6.462 7.8664-11.496-0.0401-11.773 0.61211-23.616-0.44645-35.348-0.66286-4.4832-5.0588-6.8618-9.2982-6.6509-11.648-0.58502-23.327-0.22869-34.985-0.32661zm8.8244 20.391h15.31v13.613h-30.619v-13.613h15.31z" fill="#febd69" stroke-linecap="round" stroke-width="3.0368"/><path d="m401.06 32.632c-7.2913 0.38827-14.84-0.70872-21.982 1.0142-5.9982 2.4725-4.763 10.029-5.0808 15.234 0.29083 10.605-0.80331 21.356 0.79489 31.873 1.4041 4.4728 6.5508 7.1186 11.059 6.2764 17.135-0.28378 34.324 0.61303 51.426-0.60024 5.8064-0.11021 8.5376-6.3362 7.9838-11.404-0.0582-11.747 0.63575-23.571-0.40375-35.275-1.1166-4.3513-5.3968-7.508-9.9395-6.8458-11.28-0.37982-22.573-0.23833-33.858-0.27165zm8.6026 20.386h15.31v13.613h-30.619v-13.613h15.31z" fill="#febd69" stroke-linecap="round" stroke-width="3.0368"/><path d="m95.205 32.639c-7.6693 0.31688-15.515-0.49733-23.078 0.91222-4.7256 2.3343-5.8474 7.8396-5.4418 12.626 0.20159 11.341-0.67961 22.784 0.56755 34.065 1.2096 4.5166 6.0095 6.9786 10.481 6.4876 17.736 0.3827 35.552 0.41883 53.248 0.12148 4.0916-1.5611 7.1038-5.3747 6.7975-9.9021 0.28417-12.3 0.66633-24.667-0.23962-36.943-0.22367-5.2024-5.7816-7.6819-10.373-7.1868-10.649-0.30212-21.309-0.15559-31.961-0.18092zm7.134 20.378h15.31v13.613h-30.619v-13.613h15.31z" fill="#febd69" stroke-linecap="round" stroke-width="3.0368"/><path d="m93.477 339.64c-7.0871 0.44432-14.5-0.83694-21.4 1.1032-6.1623 2.5455-5.1188 10.243-5.3985 15.632 0.24454 10.526-0.80373 21.198 0.85875 31.63 1.4476 6.0158 8.6751 6.3816 13.684 6.2341 16.246-0.0548 32.546 0.65873 48.759-0.49152 5.8037-0.12934 8.5105-6.3635 7.9564-11.427-0.0765-11.932 0.69672-23.948-0.53888-35.832-0.73533-5.8567-7.5294-7.0676-12.352-6.7199-10.521-0.20732-21.047-0.10824-31.57-0.12943zm8.8624 20.698h15.31v13.613h-30.619v-13.613h15.31z" fill="#febd69" stroke-linecap="round" stroke-width="3.0368"/><path d="m315.06 339.64c-6.991 0.43851-14.296-0.82455-21.11 1.0356-5.9928 2.7656-5.4588 10.142-5.5294 15.663 0.28099 10.451-0.51596 21.026 0.84966 31.399 1.8931 5.3168 8.088 6.911 13.171 6.4776 16.156 0.0376 32.351 0.57386 48.486-0.35657 5.5639 0.0506 9.6539-5.3455 8.9917-10.681-0.0455-12.179 0.70554-24.439-0.48636-36.571-0.73827-5.3958-6.788-7.323-11.506-6.8208-10.953-0.23715-21.912-0.11618-32.866-0.14601zm8.968 20.699h15.31v13.613h-30.619v-13.613h15.31z" fill="#febd69" stroke-linecap="round" stroke-width="3.0368"/><path d="m401.11 339.64c-7.2526 0.43291-14.81-0.79313-21.888 1.102-5.9365 2.2678-4.9397 9.6593-5.2145 14.748 0.17841 10.673-0.64839 21.443 0.56561 32.057 1.249 4.7936 6.4276 7.0547 11.054 6.531 17.156 0.22425 34.354 0.64172 51.492-0.18935 4.7981-0.3125 8.1494-4.7336 7.911-9.4152 0.42628-12.296 0.7259-24.673-0.20404-36.948-0.28005-5.7114-6.4625-8.2946-11.465-7.7416-10.748-0.24531-21.502-0.11502-32.252-0.14457zm8.5516 20.696h15.31v13.613h-30.619v-13.613h15.31z" fill="#febd69" stroke-linecap="round" stroke-width="3.0368"/></svg>
