<svg version="1.1" viewBox="0 0 377.31 513.85" xml:space="preserve" xmlns="http://www.w3.org/2000/svg">
   <g transform="translate(-67.22 .67538)">
      <path d="m298.67 102.4c-4.702 0-8.533-3.831-8.533-8.533 0-4.71-3.823-8.533-8.533-8.533s-8.533 3.823-8.533 8.533c0 14.114 11.486 25.6 25.6 25.6 4.71 0 8.533-3.823 8.533-8.533s-3.824-8.534-8.534-8.534z" />
      <path d="m366.93 119.47c4.71 0 8.533-3.823 8.533-8.533 0-4.702 3.831-8.533 8.533-8.533 4.71 0 8.533-3.823 8.533-8.533s-3.823-8.533-8.533-8.533c-14.114 0-25.6 11.486-25.6 25.6 1e-3 4.709 3.824 8.532 8.534 8.532z" />
      <path d="m76.8 119.47c4.71 0 8.533-3.823 8.533-8.533 0-9.412 7.654-17.067 17.067-17.067 1.843 0 3.738 0.358 5.786 1.101 2.705 0.998 5.717 0.538 8.021-1.186 2.304-1.715 3.584-4.489 3.405-7.356-9e-3 -0.213-0.12-0.879-0.145-1.092 0-9.412 7.654-17.067 17.067-17.067 2.313 0 4.557 0.461 6.673 1.357 2.987 1.271 6.434 0.742 8.9-1.382 2.466-2.108 3.507-5.444 2.705-8.593-0.828-3.217-1.212-5.905-1.212-8.448 0-18.825 15.309-34.133 34.133-34.133 14.046 0 26.479 8.491 31.676 21.623 1.126 2.842 3.686 4.873 6.724 5.308 3.021 0.444 6.059-0.794 7.936-3.2 3.302-4.233 8.183-6.664 13.397-6.664 6.869 0 13.047 4.087 15.727 10.419 1.289 3.063 4.241 5.086 7.561 5.205 3.405 0.188 6.4-1.698 7.902-4.651 8.806-17.297 26.283-28.041 45.611-28.041 28.237 0 51.2 22.963 51.2 51.021-9e-3 0.196-0.043 0.845-0.043 1.05 0 2.56 1.152 4.992 3.14 6.605 1.988 1.63 4.608 2.261 7.108 1.749 2.244-0.461 4.548-0.691 6.861-0.691 18.825 0 34.133 15.309 34.133 34.133 0 4.71 3.823 8.533 8.533 8.533s8.533-3.823 8.533-8.533c0-28.237-22.963-51.2-51.2-51.2h-0.529c-4.214-33.631-32.98-59.734-67.736-59.734-21.274 0-40.858 9.745-53.649 26.103-6.178-5.7-14.379-9.037-23.151-9.037-6.34 0-12.425 1.758-17.69 5.001-9.404-13.687-24.917-22.067-42.044-22.067-28.237 0-51.2 22.963-51.2 51.2-15.881 0-29.269 10.906-33.058 25.617-19.225-0.623-35.208 14.933-35.208 34.116 0 4.711 3.823 8.534 8.533 8.534z" />
      <path d="m336.33 92.399c1.664 1.664 3.849 2.5 6.033 2.5 2.185 0 4.369-0.836 6.033-2.5 6.443-6.451 10.001-15.019 10.001-24.132 0-9.122-3.558-17.69-10.001-24.132-13.295-13.312-34.953-13.312-48.273-9e-3 -3.328 3.328-3.328 8.73 0 12.066 3.336 3.337 8.738 3.337 12.066 0 6.656-6.639 17.485-6.647 24.141 9e-3 3.226 3.217 5.001 7.501 5.001 12.066 0 4.557-1.775 8.841-5.001 12.066-3.337 3.336-3.337 8.738 0 12.066z" />
      <path d="m441.54 139.36c-1.613-1.8-3.925-2.825-6.34-2.825h-238.93c-4.71 0-8.533 3.823-8.533 8.533s3.823 8.533 8.533 8.533h229.45l-33.11 314.56c-1.707 12.356-9.463 26.778-25.677 26.778h-221.87c-16.247 0-23.987-14.413-25.643-26.487l-33.143-314.85h58.786c18.825 0 34.133-15.309 34.133-34.133s-15.309-34.133-34.133-34.133c-4.71 0-8.533 3.823-8.533 8.533s3.823 8.533 8.533 8.533c9.412 0 17.067 7.654 17.067 17.067s-7.654 17.067-17.067 17.067h-68.267c-2.415 0-4.727 1.024-6.34 2.825-1.621 1.801-2.398 4.198-2.15 6.596l34.167 324.54c3.405 24.823 20.523 41.506 42.59 41.506h221.87c22.025 0 39.134-16.674 42.624-41.779l34.133-324.27c0.247-2.399-0.529-4.797-2.151-6.597z" />
      <path d="m144.32 170.7c-4.693 0.41-8.158 4.557-7.748 9.25l25.6 290.13c0.393 4.437 4.113 7.782 8.491 7.782 0.247 0 0.503-9e-3 0.759-0.034 4.693-0.41 8.158-4.557 7.748-9.25l-25.6-290.13c-0.41-4.693-4.497-8.098-9.25-7.748z" />
      <path d="m187.73 324.27c0 24.141 12.621 45.338 31.59 57.481l2.543 87.834c0.137 4.625 3.925 8.286 8.533 8.286h0.247c4.71-0.145 8.422-4.07 8.286-8.781l-2.313-79.394c6.153 1.826 12.646 2.842 19.379 2.842s13.227-1.015 19.379-2.842l-2.313 79.394c-0.137 4.71 3.576 8.636 8.286 8.781h0.247c4.608 0 8.397-3.661 8.533-8.286l2.543-87.834c18.97-12.143 31.59-33.34 31.59-57.481 0-22.536-11.025-42.487-27.904-54.929l2.304-89.924c0.119-4.702-3.601-8.619-8.32-8.747-4.762-0.401-8.627 3.601-8.747 8.32l-2.074 81.28c-7.343-2.714-15.245-4.267-23.522-4.267s-16.179 1.553-23.526 4.267l-2.074-81.28c-0.12-4.642-3.917-8.32-8.533-8.32h-0.213c-4.719 0.128-8.439 4.045-8.32 8.747l2.304 89.924c-16.88 12.441-27.905 32.392-27.905 54.929zm68.267-51.2c28.237 0 51.2 22.963 51.2 51.2s-22.963 51.2-51.2 51.2-51.2-22.963-51.2-51.2 22.963-51.2 51.2-51.2z" />
      <path d="m341.34 477.87c4.378 0 8.098-3.345 8.491-7.782l25.6-290.13c0.41-4.693-3.055-8.841-7.748-9.25-4.642-0.358-8.832 3.063-9.25 7.748l-25.6 290.13c-0.41 4.693 3.055 8.841 7.748 9.25 0.255 0.025 0.511 0.034 0.759 0.034z" />
      <path d="m213.33 110.93c4.71 0 8.533-3.823 8.533-8.533 0-9.412 7.654-17.067 17.067-17.067 4.71 0 8.533-3.823 8.533-8.533s-3.823-8.533-8.533-8.533c-18.825 0-34.133 15.309-34.133 34.133 0 4.71 3.823 8.533 8.533 8.533z" />
      <path d="m196.27 34.133c-14.114 0-25.6 11.486-25.6 25.6 0 4.71 3.823 8.533 8.533 8.533s8.533-3.823 8.533-8.533c0-4.702 3.831-8.533 8.533-8.533 4.71 0 8.533-3.823 8.533-8.533 1e-3 -4.711-3.822-8.534-8.532-8.534z" />
   </g>
   <path d="m77.697 85.313c-6.8493 0.05118-11.846 8.9851-7.155 14.48 3.555 5.3959 10.74 3.002 15.507 6.319 9.6159 4.965 10.641 20.255 2.0679 26.693-3.5928 3.1016-8.2127 4.1486-12.866 3.6079-22.719 0.37584-45.468-0.0822-68.166 0.93963-5.5705 0.38475-7.4196 7.3477-6.2787 11.975 11.005 107.5 22.452 214.95 34.214 322.37 1.4014 19.228 15.933 37.584 35.34 40.939 31.025 1.0253 62.089 0.47652 93.13 0.68998 45.246-0.15431 90.501 0.4753 135.74-0.40852 6.6689-0.14484 13.649-0.51382 19.402-4.2996 15.158-7.7464 23.833-24.624 24.564-41.24 11.032-101.14 21.686-202.33 32.036-303.55 0.38858-7.0946 1.9461-14.258 1.26-21.35-1.7338-3.8303-5.8028-6.8579-10.165-5.8299-80.246 0.0969-160.49 0.1945-240.74 0.2926-3.1476 1.9853-6.17 5.3313-5.3566 9.4072-0.47333 3.6642 2.7266 6.381 5.3566 8.2308 77.389 0.0992 154.78 0.198 232.17 0.29638-11.497 106.08-22.029 212.28-34.09 318.28-2.1755 9.7443-9.1739 19.609-19.584 21.149-12.071 1.1192-24.272 0.41632-36.393 0.70916-62.7 0.0313-125.4 0.19736-188.1-0.40735-5.1717 0.17282-10.58-0.39052-14.724-3.9002-7.9119-5.6752-11.763-15.488-11.934-25.006-11.234-103.08-22.289-206.22-32.839-309.37-0.05241-3.2175 6.1033-0.63742 8.5973-1.4661 18.395-0.22793 36.827 0.50471 55.198-0.55091 18.217-2.9035 31.985-22.2 28.202-40.393-2.8094-16.174-18.06-28.617-34.39-28.613z" stroke-linecap="round" stroke-width="2.8959" />
   <path d="m222.21 170.82c-4.8182 0.0674-8.6309 4.5649-8.2184 9.3205-1.3856 26.507-1.4204 53.074-2.6232 79.583-14.34-4.6902-30.205-4.9748-44.502-0.16629-1.739-0.4373-0.47496-5.0245-1.0022-7.0831-0.97074-24.222-0.87537-48.492-2.3835-72.687 7e-3 -3.556-1.536-7.3238-5.2579-8.3518-5.6375-2.3535-13.21 2.1742-12.489 8.586 0.0888 29.845 1.3581 59.676 2.0079 89.512-17.054 13.043-28.094 33.922-27.84 55.542-0.20505 22.89 12.351 44.905 31.246 57.523 1.6951 29.226 1.2818 58.661 3.1335 87.92-0.13681 6.6696 8.4582 11.164 13.788 7.0622 3.8377-2.2144 4.4961-6.7935 4.1335-10.811-0.40542-25.109-1.4564-50.204-1.9468-75.312 12.084 3.0077 25.005 3.3319 36.973-0.0339-0.21431 26.137-1.894 52.258-1.706 78.394-0.31908 3.7049 1.6152 7.2955 5.1947 8.5642 6.0213 2.8507 13.506-2.6088 12.737-9.1914 1.393-28.818 1.5751-57.686 2.8797-86.498 19.969-13.127 32.75-36.923 31.159-60.95-0.64659-20.471-11.504-40.005-27.847-52.166 1.3366-28.086 1.6876-56.22 2.2596-84.333 0.0627-4.4952 0.65403-10.317-3.9508-12.929-1.69-1.0961-3.7372-1.614-5.7455-1.4955zm-30.71 103.99c10.026 0.0127 19.798 4.1633 27.856 9.9106 12.048 9.5707 20.456 24.643 19.547 40.094 0.82246 13.865-5.9239 27.468-15.68 36.9-9.1312 8.7318-21.565 13.743-34.232 13.371-23.265 1.0806-45.277-17.254-49.618-39.973-4.6058-21.16 6.2344-44.537 25.374-54.588 8.2136-4.8167 17.395-5.8129 26.753-5.7148z" fill="#26495c" stroke-linecap="round" stroke-width="2.8959" />
   <path d="m78.125 84.597c-6.6744 0.01141-12.449 7.6787-9.0158 13.902 2.0789 5.3353 8.3101 5.6359 13.05 6.8812 6.6903 1.4999 11.064 8.0348 10.999 14.716 0.44116 7.9757-6.5031 15.66-14.647 15.243-23.846 1.0339-47.843-0.0284-71.691 1.6131-5.8131 0.49652-7.5937 7.6646-6.5271 12.516 9.4106 95.711 19.836 191.32 30.204 286.93 1.8352 14.782 2.9114 29.699 5.4759 44.37 4.77 15.328 17.225 29.785 33.784 32.097 14.144 1.3288 28.408 0.4878 42.598 0.84349 63.22 0.10434 126.45 0.36879 189.66-0.29495 7.9345-0.0215 15.729-2.533 21.993-7.4344 12.081-8.9129 19.239-23.614 19.774-38.526 11.355-102.25 22.042-204.58 32.451-306.93 0.23746-6.3044 1.8942-12.815 0.49321-19.052-2.0478-3.2722-5.6461-6.187-9.7873-5.3367-80.695-0.39672-161.39 0.11957-242.09 0.22356-4.8813 3.1063-7.5886 10.573-3.3032 15.355 1.8534 2.4409 4.1634 4.6383 7.4921 3.7308h227.78c-6.8282 66.895-14.098 133.83-21.104 200.74-4.3379 39.079-7.9538 78.281-13.278 117.21-1.1069 7.8138-6.4232 14.93-13.263 18.722-8.7595 2.2403-17.962 1.2412-26.925 1.7148-68.188 0.75373-136.39 0.63123-204.57-0.41443-4.5277 0.046-9.4493-0.19454-12.776-3.7834-6.6054-5.0111-10.363-12.915-10.949-21.109-10.869-100.67-21.813-201.36-32.036-302.09-0.10017-3.4142-1.0203-7.4018-0.50226-10.524 21.081-1.1981 42.343 0.44109 63.427-1.2949 13.615-2.2313 24.36-14.206 27.669-27.237 4.1413-16.991-7.2361-35.117-23.471-40.597-3.5087-1.1703-7.1879-2.2247-10.916-2.1912z" fill="#26495c" stroke-linecap="round" stroke-width="2.8959" />
   <path d="m299 170.96c-4.4667-0.0926-8.2936 3.9092-8.0024 8.3867-5.713 54.996-10.093 110.12-15.106 165.19-3.6322 42.287-7.6704 84.595-11.049 126.87 1.4833 4.6353 5.9439 8.9104 11.139 7.4943 4.8114-0.88237 7.4702-5.7861 7.1853-10.398 7.6588-78.379 14.165-156.87 21.102-235.31 1.3847-18.474 3.5866-36.918 4.1361-55.438-0.63107-4.4374-5.1078-7.2008-9.405-6.7907z" fill="#26495c" stroke-linecap="round" stroke-width="2.8959" />
   <path d="m77.465 170.86c-6.2615 0.10187-10.39 7.2141-8.5824 12.91 8.0191 89.543 15.573 179.13 23.909 268.64 1.1342 7.7827 0.95331 15.96 3.6281 23.418 3.1598 3.7573 9.6501 4.6224 13.191 0.77829 2.9838-2.7921 3.7181-6.8747 2.7556-10.756-8.3031-92.865-16.05-185.78-24.871-278.6-1.0618-4.9244 0.42511-11.587-4.4823-14.798-1.6083-1.1236-3.5914-1.68-5.5486-1.5962z" fill="#26495c" stroke-linecap="round" stroke-width="2.8959" />
   <path d="m120.15 0.0056985c-24.449-0.15035-47.245 19.351-50.784 43.57-0.66599 2.3928-0.29068 5.2761-1.276 7.4548-9.761 0.90125-19.356 5.1629-25.527 12.967-3.1595 3.7094-5.4045 8.1189-6.823 12.767-15.838-0.19343-30.867 11.45-34.412 26.906-1.147 5.3436-1.9227 12.978 3.8364 15.981 5.3894 2.9513 13.084-0.82645 13.419-7.155 0.50084-6.1663 3.2046-12.644 9.1629-15.351 4.6761-2.6191 10.139-1.8542 15.045-0.50226 5.5401 1.0153 10.491-4.1573 10.248-9.5928-0.34136-7.6949 4.9276-15.35 12.739-16.852 5.946-2.178 11.804 3.1732 17.618 0.45814 4.8637-2.0126 5.4151-8.0831 4.3778-12.545-1.2935-8.4086-0.11541-17.415 4.9434-24.502 6.2924-9.8209 17.98-15.648 29.524-14.864 12.657-0.0017 24.021 8.987 29.111 20.299 1.8147 4.6078 7.2763 7.8321 12.038 5.6742 5.356-3.1319 9.4112-9.3411 16.299-9.1799 7.5594-0.4346 13.656 5.3072 16.791 11.665 3.2288 5.1103 11.332 5.1537 14.594 0.06335 3.8656-6.0673 7.7296-12.315 13.501-16.817 8.6804-7.3619 19.892-11.931 31.344-11.54 23.703-1.8211 46.464 16.979 50.512 40.221 1.6197 4.9282 0.17374 10.452 2.4638 15.153 2.1703 4.2594 7.315 5.0687 11.623 4.4099 8.8571-1.0587 18.137 0.62869 24.998 6.6184 6.937 5.5252 12.206 13.509 12.852 22.468 0.23774 4.5421 1.0252 10.213 5.8654 12.114 6.2524 3.0914 14.131-2.9281 12.962-9.7511-0.47828-14.614-7.3435-28.795-18.655-38.101-9.002-8.1409-21.233-11.914-33.189-12.499-3.5194-25.83-22.714-48.768-47.703-56.387-10.227-3.4378-21.308-3.2805-31.921-2.3135-16.371 3.0017-31.632 11.649-42.201 24.571-1.8398-0.10495-3.8691-2.8496-6.0438-3.7626-10.512-5.9856-24.264-5.865-34.732 0.16477-9.7243-13.507-25.875-22.07-42.597-21.811z" fill="#26495c" stroke-linecap="round" stroke-width="2.8959" />
   <path d="m170.5 68.313c-14.897 0.49196-28.774 11.459-32.367 25.993-1.5604 5.1643-2.5898 11.881 2.2294 15.708 4.4431 4.5322 12.81 1.8373 14.303-4.2262 1.2699-5.2344 1.538-11.354 6.2104-14.951 4.9008-4.9367 13.033-2.7673 17.9-7.5633 4.2525-4.7525 1.6141-13.156-4.6742-14.524-1.1656-0.34736-2.3884-0.47488-3.6018-0.43665z" fill="#26495c" stroke-linecap="round" stroke-width="2.8959" />
   <path d="m214.4 85.346c-6.277 0.19542-10.825 6.95-9.0441 12.903 1.9914 13.026 15.057 24.409 28.5 22.015 5.9624-1.4114 9.1362-9.6513 4.6165-14.266-2.0647-2.9922-5.704-3.4062-8.9389-4.0441-4.2388-0.96397-5.9922-5.3566-6.2172-9.2783-1.0273-3.9444-4.6956-7.408-8.9163-7.3292z" fill="#26495c" stroke-linecap="round" stroke-width="2.8959" />
   <path d="m255.97 34.257c-9.274 0.42008-18.863 4.4042-24.736 11.739-3.4886 5.4244 0.37437 14.062 7.1844 13.856 6.0554 0.21453 9.5554-6.0591 15.417-6.7093 9.8014-2.5277 20.449 6.2883 19.346 16.454 0.16592 4.7349-2.6966 8.8232-5.5747 12.361-3.7487 5.0424-0.55813 12.647 5.4163 14.04 6.3502 1.6033 10.927-4.7389 13.954-9.3631 8.3751-14.047 5.3364-33.955-7.5803-44.278-6.4589-5.4708-14.967-8.4143-23.426-8.0984z" fill="#26495c" stroke-linecap="round" stroke-width="2.8959" />
   <path d="m315.57 85.336c-13.922 0.52923-25.857 13.642-24.971 27.54 0.87334 5.2134 6.3135 9.1578 11.523 7.4163 4.5732-0.94665 6.744-5.5402 7.0577-9.8066 0.2692-4.2476 4.2615-6.5496 8.1459-6.7353 6.5628-0.29038 10.605-8.3189 7.2986-13.85-1.7243-3.2578-5.4979-4.7867-9.0543-4.5645z" fill="#26495c" stroke-linecap="round" stroke-width="2.8959" />
   <path d="m127.9 34.154c-13.971 0.31462-25.856 13.722-25.118 27.518 1.1833 5.8633 8.3752 10.342 13.753 6.5962 3.7985-2.1052 4.8034-6.6279 5.2364-10.534 1.437-3.9489 5.7456-5.1442 9.4683-5.6765 6.2783-1.2952 9.121-9.6945 4.75-14.457-1.9381-2.3882-5.0483-3.6211-8.0905-3.4468z" fill="#26495c" stroke-linecap="round" stroke-width="2.8959" />
</svg>